<svg width="39" height="39" viewBox="0 0 39 39" fill="none" xmlns="http://www.w3.org/2000/svg">
<g filter="url(#filter0_d_7116_105)">
<path d="M12.701 20.436C12.5259 20.188 12.4323 19.8918 12.433 19.5883C12.4338 19.2848 12.5289 18.989 12.7052 18.742C12.8882 18.4915 13.1415 18.3016 13.4342 18.1975L15.3663 17.5685C15.8505 17.4071 16.2907 17.1354 16.6519 16.7747C17.0131 16.4141 17.2855 15.9744 17.4475 15.4904L18.0808 13.5333C18.1855 13.2439 18.3785 12.9948 18.6324 12.8208C18.8863 12.6469 19.1884 12.5571 19.4961 12.5639C19.8038 12.5707 20.1017 12.6739 20.3476 12.859C20.5935 13.044 20.7752 13.3015 20.867 13.5952L21.4975 15.5298C21.6587 16.0143 21.9304 16.4546 22.2911 16.816C22.6519 17.1774 23.0917 17.45 23.5759 17.6121L25.5291 18.2481C25.8169 18.3505 26.0656 18.54 26.2406 18.7903C26.4156 19.0406 26.5082 19.3392 26.5056 19.6446C26.5029 19.95 26.4052 20.247 26.2259 20.4942C26.0466 20.7414 25.7947 20.9266 25.5052 21.0241L23.5351 21.6671C23.0639 21.8285 22.6354 22.0947 22.282 22.4456C21.9285 22.7966 21.6594 23.2231 21.4947 23.6931L20.8656 25.6488C20.763 25.9364 20.5733 26.1849 20.323 26.3599C20.0727 26.5348 19.7741 26.6274 19.4687 26.625C19.1633 26.6225 18.8663 26.525 18.6188 26.346C18.3714 26.1671 18.1858 25.9155 18.0878 25.6263L17.4616 23.6931C17.3 23.2062 17.0263 22.764 16.6627 22.4021C16.299 22.0402 15.8554 21.7687 15.3677 21.6094L13.4102 20.9734C13.1232 20.8721 12.8755 20.6836 12.701 20.436Z" fill="#9547A5"/>
</g>
<defs>
<filter id="filter0_d_7116_105" x="0.433105" y="0.563477" width="38.0725" height="38.0615" filterUnits="userSpaceOnUse" color-interpolation-filters="sRGB">
<feFlood flood-opacity="0" result="BackgroundImageFix"/>
<feColorMatrix in="SourceAlpha" type="matrix" values="0 0 0 0 0 0 0 0 0 0 0 0 0 0 0 0 0 0 127 0" result="hardAlpha"/>
<feOffset/>
<feGaussianBlur stdDeviation="6"/>
<feComposite in2="hardAlpha" operator="out"/>
<feColorMatrix type="matrix" values="0 0 0 0 0.532812 0 0 0 0 0.184062 0 0 0 0 0.590937 0 0 0 0.35 0"/>
<feBlend mode="normal" in2="BackgroundImageFix" result="effect1_dropShadow_7116_105"/>
<feBlend mode="normal" in="SourceGraphic" in2="effect1_dropShadow_7116_105" result="shape"/>
</filter>
</defs>
</svg>
